<svg width="990" height="852" viewBox="0 0 990 852" fill="none" xmlns="http://www.w3.org/2000/svg">
<path d="M771.193 57.9095L611.001 336.307L618.808 342.557L778.999 64.1605L771.193 57.9095Z" fill="#FFED00"/>
<path d="M160 337.164C160 326.671 151.493 318.164 141 318.164C130.507 318.164 122 326.671 122 337.164C122 347.657 130.507 356.164 141 356.164C151.493 356.164 160 347.657 160 337.164Z" fill="#FFED00"/>
<path d="M910 411.16C910 400.667 901.493 392.16 891 392.16C880.507 392.16 872 400.667 872 411.16C872 421.654 880.507 430.16 891 430.16C901.493 430.16 910 421.654 910 411.16Z" fill="#FFED00"/>
<path d="M550 485.16C550 474.667 541.493 466.16 531 466.16C520.507 466.16 512 474.667 512 485.16C512 495.654 520.507 504.16 531 504.16C541.493 504.16 550 495.654 550 485.16Z" fill="#FFED00"/>
<path d="M768 832.156C768 821.663 759.493 813.156 749 813.156C738.507 813.156 730 821.663 730 832.156C730 842.65 738.507 851.156 749 851.156C759.493 851.156 768 842.65 768 832.156Z" fill="#FFED00"/>
<path d="M983 243.16C983 232.667 974.493 224.16 964 224.16C953.507 224.16 945 232.667 945 243.16C945 253.654 953.507 262.16 964 262.16C974.493 262.16 983 253.654 983 243.16Z" fill="#FFED00"/>
<path d="M796 57.1641C796 46.6707 787.493 38.1641 777 38.1641C766.507 38.1641 758 46.6707 758 57.1641C758 67.6575 766.507 76.1641 777 76.1641C787.493 76.1641 796 67.6575 796 57.1641Z" fill="#FFED00"/>
<path d="M353 55.1562C353 44.6628 344.493 36.1562 334 36.1562C323.507 36.1562 315 44.6628 315 55.1562C315 65.6497 323.507 74.1562 334 74.1562C344.493 74.1562 353 65.6497 353 55.1562Z" fill="#FFED00"/>
<path d="M342.5 56.6562L336.375 64.561L612.783 341.55L742.502 829.157L752.122 826.423L621.503 335.656L342.5 56.6562Z" fill="#FFED00"/>
<path d="M616.997 332.38L616.388 332.21L142.5 332.195L142.312 342.194L614.94 342.186L891.329 415.796L893.999 406.158L616.997 332.38Z" fill="#FFED00"/>
<path d="M610.439 333.702L530.5 475.661L539.839 479.239L617.926 342.112L978.972 245.347L976.499 235.657L610.439 333.702Z" fill="#FFED00"/>
<path d="M615.996 299.16C595.009 299.16 577.996 316.173 577.996 337.16C577.996 358.147 595.009 375.16 615.996 375.16C636.983 375.16 653.996 358.147 653.996 337.16C653.996 316.173 636.983 299.16 615.996 299.16Z" fill="#FFED00"/>
<path d="M393.866 629.16L393.866 617.606L422.225 617.606C424.186 617.606 425.166 616.556 425.166 614.455L425.166 601.325L423.276 601.325C422.715 602.516 421.84 603.706 420.65 604.897C419.459 606.087 417.849 607.067 415.818 607.838C413.787 608.608 411.197 608.993 408.045 608.993C403.984 608.993 400.413 608.083 397.332 606.262C394.321 604.371 391.975 601.78 390.294 598.489C388.614 595.198 387.773 591.417 387.773 587.145L387.773 556.055L401.008 556.055L401.008 586.095C401.008 590.016 401.953 592.957 403.844 594.918C405.805 596.879 408.571 597.859 412.142 597.859C416.203 597.859 419.354 596.529 421.595 593.868C423.836 591.137 424.956 587.355 424.956 582.524L424.956 556.055L438.191 556.055L438.191 617.396C438.191 620.967 437.141 623.803 435.04 625.904C432.939 628.075 430.138 629.16 426.637 629.16L393.866 629.16Z" fill="white"/>
<path d="M324.289 608.153L324.289 556.055L337.314 556.055L337.314 562.883L339.204 562.883C340.044 561.062 341.62 559.346 343.931 557.736C346.242 556.055 349.743 555.215 354.434 555.215C358.496 555.215 362.032 556.16 365.043 558.051C368.124 559.871 370.505 562.427 372.186 565.718C373.866 568.94 374.706 572.721 374.706 577.062L374.706 608.153L361.472 608.153L361.472 578.113C361.472 574.191 360.492 571.25 358.531 569.29C356.64 567.329 353.909 566.349 350.338 566.349C346.277 566.349 343.126 567.714 340.885 570.445C338.644 573.106 337.524 576.852 337.524 581.684L337.524 608.153L324.289 608.153Z" fill="white"/>
<path d="M279.736 609.625C276.025 609.625 272.699 608.995 269.758 607.734C266.817 606.404 264.471 604.513 262.72 602.062C261.04 599.541 260.199 596.495 260.199 592.924C260.199 589.353 261.04 586.377 262.72 583.996C264.471 581.545 266.852 579.725 269.863 578.534C272.944 577.274 276.445 576.644 280.366 576.644L294.651 576.644L294.651 573.703C294.651 571.252 293.881 569.256 292.34 567.715C290.8 566.105 288.349 565.3 284.988 565.3C281.697 565.3 279.246 566.07 277.635 567.61C276.025 569.081 274.974 571.007 274.484 573.387L262.3 569.291C263.14 566.63 264.471 564.214 266.291 562.044C268.182 559.803 270.668 558.017 273.749 556.687C276.9 555.286 280.716 554.586 285.198 554.586C292.06 554.586 297.487 556.302 301.478 559.733C305.47 563.164 307.466 568.136 307.466 574.648L307.466 594.08C307.466 596.18 308.446 597.231 310.407 597.231L314.608 597.231L314.608 608.154L305.785 608.154C303.194 608.154 301.058 607.524 299.378 606.264C297.697 605.003 296.857 603.323 296.857 601.222L296.857 601.117L294.861 601.117C294.581 601.957 293.951 603.078 292.971 604.478C291.99 605.809 290.45 606.999 288.349 608.049C286.248 609.1 283.377 609.625 279.736 609.625ZM282.047 598.911C285.758 598.911 288.769 597.896 291.08 595.865C293.461 593.764 294.651 590.999 294.651 587.567L294.651 586.517L281.312 586.517C278.861 586.517 276.935 587.042 275.535 588.093C274.134 589.143 273.434 590.613 273.434 592.504C273.434 594.395 274.169 595.935 275.64 597.126C277.11 598.316 279.246 598.911 282.047 598.911Z" fill="white"/>
<path d="M173.91 608.153L173.91 556.055L186.935 556.055L186.935 561.727L188.825 561.727C189.736 559.976 191.241 558.471 193.342 557.211C195.443 555.88 198.209 555.215 201.64 555.215C205.351 555.215 208.327 555.95 210.568 557.421C212.809 558.821 214.524 560.677 215.715 562.988L217.605 562.988C218.796 560.747 220.476 558.891 222.647 557.421C224.818 555.95 227.899 555.215 231.89 555.215C235.111 555.215 238.017 555.915 240.608 557.316C243.269 558.646 245.37 560.712 246.91 563.513C248.521 566.244 249.326 569.71 249.326 573.911L249.326 608.153L236.092 608.153L236.092 574.857C236.092 571.986 235.356 569.85 233.886 568.449C232.415 566.979 230.35 566.244 227.689 566.244C224.678 566.244 222.332 567.224 220.651 569.185C219.041 571.075 218.235 573.806 218.235 577.378L218.235 608.153L205.001 608.153L205.001 574.857C205.001 571.986 204.266 569.85 202.795 568.449C201.325 566.979 199.259 566.244 196.598 566.244C193.587 566.244 191.241 567.224 189.561 569.185C187.95 571.075 187.145 573.806 187.145 577.378L187.145 608.153L173.91 608.153Z" fill="white"/>
<path d="M132.262 608.156L132.262 556.058L145.286 556.058L145.286 561.94L147.177 561.94C147.947 559.839 149.208 558.299 150.958 557.318C152.779 556.338 154.88 555.848 157.26 555.848L163.563 555.848L163.563 567.612L157.05 567.612C153.689 567.612 150.923 568.522 148.752 570.343C146.582 572.093 145.496 574.824 145.496 578.535L145.496 608.156L132.262 608.156Z" fill="white"/>
<path d="M95.388 609.625C90.2062 609.625 85.6196 608.54 81.6282 606.369C77.7069 604.128 74.6258 601.012 72.385 597.021C70.2143 592.959 69.1289 588.198 69.1289 582.736L69.1289 581.475C69.1289 576.013 70.2143 571.287 72.385 567.295C74.5558 563.234 77.6018 560.118 81.5232 557.947C85.4445 555.706 89.9961 554.586 95.1779 554.586C100.29 554.586 104.736 555.741 108.518 558.052C112.299 560.293 115.24 563.444 117.341 567.505C119.441 571.497 120.492 576.153 120.492 581.475L120.492 585.992L82.5735 585.992C82.7136 589.563 84.0441 592.469 86.5649 594.71C89.0858 596.951 92.1669 598.071 95.8081 598.071C99.5194 598.071 102.25 597.266 104.001 595.655C105.752 594.045 107.082 592.259 107.992 590.298L118.811 595.97C117.831 597.791 116.395 599.787 114.505 601.957C112.684 604.058 110.233 605.879 107.152 607.419C104.071 608.89 100.15 609.625 95.388 609.625ZM82.6786 576.118L107.047 576.118C106.767 573.107 105.541 570.692 103.371 568.871C101.27 567.05 98.5041 566.14 95.0729 566.14C91.5016 566.14 88.6657 567.05 86.5649 568.871C84.4642 570.692 83.1688 573.107 82.6786 576.118Z" fill="white"/>
<path d="M27.0994 609.627C22.0576 609.627 17.471 608.506 13.3396 606.265C9.2782 603.955 6.02208 600.628 3.57123 596.287C1.19041 591.875 -1.23731e-07 586.519 -1.09117e-07 580.216L-6.8198e-08 562.57C-4.62772e-08 553.117 2.66092 545.87 7.98276 540.828C13.3046 535.716 20.5171 533.16 29.6202 533.16C38.6533 533.16 45.6208 535.576 50.5224 540.408C55.4942 545.169 57.98 551.647 57.98 559.839L57.98 560.26L44.3253 560.26L44.3253 559.419C44.3253 556.828 43.7651 554.483 42.6447 552.382C41.5944 550.281 39.9838 548.636 37.8131 547.445C35.6423 546.185 32.9114 545.554 29.6202 545.554C24.7185 545.554 20.8672 547.06 18.0662 550.071C15.2653 553.082 13.8648 557.178 13.8648 562.36L13.8648 580.426C13.8648 585.538 15.2653 589.67 18.0662 592.821C20.8672 595.902 24.7886 597.442 29.8303 597.442C34.872 597.442 38.5483 596.112 40.8591 593.451C43.1699 590.79 44.3253 587.429 44.3253 583.367L44.3253 582.317L26.8893 582.317L26.8893 570.553L57.98 570.553L57.98 608.156L45.1656 608.156L45.1656 601.119L43.2749 601.119C42.7848 602.309 41.9795 603.569 40.8591 604.9C39.8087 606.23 38.1982 607.351 36.0274 608.261C33.8567 609.171 30.8807 609.627 27.0994 609.627Z" fill="white"/>
<path d="M187.055 708.197L187.055 655.739L200.169 655.739L200.169 661.662L202.073 661.662C202.849 659.546 204.118 657.995 205.88 657.008C207.714 656.021 209.829 655.527 212.226 655.527L218.572 655.527L218.572 667.373L212.015 667.373C208.63 667.373 205.845 668.289 203.659 670.123C201.474 671.885 200.381 674.635 200.381 678.372L200.381 708.197L187.055 708.197Z" fill="white"/>
<path d="M141.873 709.039C137.784 709.039 134.188 708.122 131.085 706.289C128.053 704.385 125.691 701.776 123.999 698.462C122.307 695.148 121.461 691.341 121.461 687.04L121.461 655.734L134.787 655.734L134.787 685.982C134.787 689.931 135.739 692.892 137.643 694.866C139.617 696.841 142.402 697.828 145.998 697.828C150.087 697.828 153.26 696.488 155.516 693.809C157.773 691.059 158.901 687.252 158.901 682.386L158.901 655.734L172.227 655.734L172.227 708.192L159.112 708.192L159.112 701.318L157.209 701.318C156.362 703.081 154.776 704.808 152.449 706.5C150.123 708.192 146.597 709.039 141.873 709.039Z" fill="white"/>
<path d="M82.0841 709.673C76.8665 709.673 72.1777 708.616 68.0177 706.5C63.8578 704.385 60.5791 701.318 58.1819 697.299C55.7846 693.28 54.5859 688.45 54.5859 682.81L54.5859 681.118C54.5859 675.477 55.7846 670.647 58.1819 666.628C60.5791 662.609 63.8578 659.542 68.0177 657.427C72.1777 655.312 76.8665 654.254 82.0841 654.254C87.3017 654.254 91.9905 655.312 96.1505 657.427C100.31 659.542 103.589 662.609 105.986 666.628C108.384 670.647 109.582 675.477 109.582 681.118L109.582 682.81C109.582 688.45 108.384 693.28 105.986 697.299C103.589 701.318 100.31 704.385 96.1505 706.5C91.9905 708.616 87.3017 709.673 82.0841 709.673ZM82.0841 697.828C86.1736 697.828 89.558 696.524 92.2373 693.915C94.9166 691.235 96.2563 687.428 96.2563 682.492L96.2563 681.435C96.2563 676.499 94.9166 672.727 92.2373 670.118C89.6285 667.439 86.2441 666.099 82.0841 666.099C77.9947 666.099 74.6103 667.439 71.9309 670.118C69.2516 672.727 67.912 676.499 67.912 681.435L67.912 682.492C67.912 687.428 69.2516 691.235 71.9309 693.915C74.6103 696.524 77.9947 697.828 82.0841 697.828Z" fill="white"/>
<path d="M21.5755 708.194L21.5755 646.852L-2.94297e-08 646.852L0 634.16L57.1116 634.16L57.1116 646.852L35.5361 646.852L35.5361 708.194L21.5755 708.194Z" fill="white"/>
<path d="M326.676 529.16L326.676 456.455L339.543 456.455L339.543 462.722L341.411 462.722C342.587 460.703 344.42 458.927 346.911 457.395C349.401 455.793 352.964 454.992 357.599 454.992C361.75 454.992 365.589 456.037 369.118 458.126C372.646 460.146 375.482 463.14 377.627 467.11C379.771 471.079 380.843 475.885 380.843 481.526L380.843 483.197C380.843 488.838 379.771 493.643 377.627 497.613C375.482 501.582 372.646 504.612 369.118 506.701C365.589 508.721 361.75 509.73 357.599 509.73C354.486 509.73 351.857 509.347 349.713 508.581C347.637 507.885 345.942 506.98 344.628 505.865C343.383 504.681 342.38 503.497 341.619 502.314L339.751 502.314L339.751 529.16L326.676 529.16ZM353.656 498.24C357.737 498.24 361.093 496.951 363.721 494.374C366.42 491.728 367.769 487.898 367.769 482.884L367.769 481.839C367.769 476.825 366.42 473.029 363.721 470.453C361.023 467.806 357.668 466.483 353.656 466.483C349.643 466.483 346.288 467.806 343.59 470.453C340.892 473.029 339.543 476.825 339.543 481.839L339.543 482.884C339.543 487.898 340.892 491.728 343.59 494.374C346.288 496.951 349.643 498.24 353.656 498.24Z" fill="white"/>
<path d="M282.612 509.161C278.585 509.161 275.043 508.258 271.987 506.453C269.001 504.578 266.675 502.008 265.008 498.744C263.341 495.48 262.508 491.73 262.508 487.494L262.508 456.66L275.633 456.66L275.633 486.452C275.633 490.341 276.571 493.258 278.446 495.203C280.39 497.147 283.133 498.119 286.675 498.119C290.703 498.119 293.828 496.8 296.05 494.161C298.272 491.452 299.384 487.702 299.384 482.911L299.384 456.66L312.509 456.66L312.509 508.328L299.592 508.328L299.592 501.557L297.717 501.557C296.883 503.293 295.321 504.994 293.029 506.661C290.738 508.328 287.265 509.161 282.612 509.161Z" fill="white"/>
<path d="M235.089 508.329C231.704 508.329 228.94 507.291 226.799 505.214C224.726 503.068 223.69 500.229 223.69 496.698L223.69 467.621L210.84 467.621L210.84 456.821L223.69 456.821L223.69 440.828L236.747 440.828L236.747 456.821L250.841 456.821L250.841 467.621L236.747 467.621L236.747 494.414C236.747 496.491 237.714 497.529 239.649 497.529L249.597 497.529L249.597 508.329L235.089 508.329Z" fill="white"/>
<path d="M174.172 508.328L174.172 456.868L187.002 456.868L187.002 462.678L188.865 462.678C189.623 460.603 190.865 459.081 192.589 458.113C194.383 457.144 196.452 456.66 198.798 456.66L205.006 456.66L205.006 468.28L198.591 468.28C195.28 468.28 192.555 469.179 190.417 470.978C188.278 472.707 187.209 475.404 187.209 479.07L187.209 508.328L174.172 508.328Z" fill="white"/>
<path d="M130.286 509.993C126.591 509.993 123.28 509.363 120.352 508.104C117.424 506.774 115.088 504.885 113.346 502.436C111.672 499.917 110.836 496.873 110.836 493.304C110.836 489.735 111.672 486.761 113.346 484.382C115.088 481.933 117.459 480.114 120.456 478.924C123.524 477.664 127.01 477.035 130.914 477.035L145.135 477.035L145.135 474.096C145.135 471.646 144.368 469.652 142.835 468.113C141.301 466.503 138.861 465.699 135.515 465.699C132.238 465.699 129.798 466.468 128.195 468.008C126.591 469.477 125.546 471.402 125.058 473.781L112.927 469.687C113.764 467.028 115.088 464.614 116.901 462.445C118.783 460.205 121.258 458.421 124.326 457.091C127.463 455.692 131.262 454.992 135.724 454.992C142.556 454.992 147.959 456.707 151.932 460.135C155.906 463.564 157.893 468.533 157.893 475.04L157.893 494.459C157.893 496.558 158.869 497.608 160.821 497.608L165.004 497.608L165.004 508.524L156.22 508.524C153.64 508.524 151.514 507.894 149.841 506.634C148.168 505.375 147.331 503.695 147.331 501.596L147.331 501.491L145.344 501.491C145.065 502.331 144.438 503.45 143.462 504.85C142.486 506.18 140.952 507.369 138.861 508.419C136.77 509.468 133.911 509.993 130.286 509.993ZM132.587 499.287C136.282 499.287 139.279 498.272 141.58 496.243C143.95 494.144 145.135 491.38 145.135 487.951L145.135 486.901L131.855 486.901C129.415 486.901 127.498 487.426 126.103 488.476C124.709 489.525 124.012 490.995 124.012 492.884C124.012 494.773 124.744 496.313 126.208 497.503C127.672 498.692 129.798 499.287 132.587 499.287Z" fill="white"/>
<path d="M86.7531 508.329C83.3679 508.329 80.6044 507.291 78.4628 505.214C76.3902 503.068 75.3539 500.229 75.3539 496.698L75.3539 467.621L62.5039 467.621L62.5039 456.821L75.3539 456.821L75.3539 440.828L88.4111 440.828L88.4111 456.821L102.505 456.821L102.505 467.621L88.4111 467.621L88.4111 494.414C88.4111 496.491 89.3783 497.529 91.3127 497.529L101.261 497.529L101.261 508.329L86.7531 508.329Z" fill="white"/>
<path d="M28.4342 509.995C22.8508 509.995 17.9222 508.988 13.6484 506.974C9.37467 504.96 6.0315 502.078 3.6189 498.328C1.2063 494.578 -1.29633e-07 490.064 -1.17394e-07 484.786L-1.10631e-07 481.869L13.4416 481.869L13.4416 484.786C13.4416 489.161 14.7858 492.46 17.4741 494.682C20.1624 496.835 23.8158 497.911 28.4342 497.911C33.1215 497.911 36.6026 496.974 38.8773 495.099C41.221 493.224 42.3928 490.828 42.3928 487.911C42.3928 485.897 41.8069 484.265 40.6351 483.015C39.5321 481.765 37.8778 480.758 35.672 479.994C33.5351 479.161 30.9157 478.397 27.8138 477.703L25.4357 477.182C20.4726 476.071 16.1989 474.682 12.6144 473.015C9.09894 471.279 6.37615 469.022 4.44608 466.244C2.58493 463.466 1.65435 459.855 1.65435 455.411C1.65435 450.966 2.68832 447.181 4.75627 444.056C6.89314 440.862 9.85719 438.431 13.6484 436.764C17.5086 435.028 22.0236 434.16 27.1934 434.16C32.3633 434.16 36.9472 435.063 40.9452 436.869C45.0122 438.605 48.183 441.244 50.4578 444.785C52.8014 448.258 53.9733 452.633 53.9733 457.911L53.9733 461.036L40.5317 461.036L40.5317 457.911C40.5317 455.133 39.9802 452.911 38.8773 451.244C37.8433 449.508 36.3268 448.258 34.3278 447.494C32.3288 446.66 29.9507 446.244 27.1934 446.244C23.0575 446.244 19.9901 447.042 17.9911 448.64C16.061 450.167 15.096 452.286 15.096 454.994C15.096 456.799 15.544 458.327 16.4401 459.577C17.4052 460.827 18.8183 461.869 20.6794 462.702C22.5406 463.536 24.9187 464.265 27.8138 464.89L30.1919 465.411C35.3618 466.522 39.8423 467.946 43.6336 469.682C47.4937 471.418 50.4922 473.71 52.6291 476.557C54.766 479.404 55.8344 483.05 55.8344 487.495C55.8344 491.939 54.6971 495.863 52.4223 499.266C50.2165 502.599 47.0457 505.238 42.9098 507.182C38.8428 509.057 34.0176 509.995 28.4342 509.995Z" fill="white"/>
</svg>
