<svg width="1015" height="852" viewBox="0 0 1015 852" fill="none" xmlns="http://www.w3.org/2000/svg">
<path d="M796.193 57.9095L636.001 336.307L643.808 342.557L803.999 64.1605L796.193 57.9095Z" fill="#FFED00"/>
<path d="M185 337.164C185 326.671 176.493 318.164 166 318.164C155.507 318.164 147 326.671 147 337.164C147 347.657 155.507 356.164 166 356.164C176.493 356.164 185 347.657 185 337.164Z" fill="#FFED00"/>
<path d="M935 411.16C935 400.667 926.493 392.16 916 392.16C905.507 392.16 897 400.667 897 411.16C897 421.654 905.507 430.16 916 430.16C926.493 430.16 935 421.654 935 411.16Z" fill="#FFED00"/>
<path d="M575 485.16C575 474.667 566.493 466.16 556 466.16C545.507 466.16 537 474.667 537 485.16C537 495.654 545.507 504.16 556 504.16C566.493 504.16 575 495.654 575 485.16Z" fill="#FFED00"/>
<path d="M793 832.156C793 821.663 784.493 813.156 774 813.156C763.507 813.156 755 821.663 755 832.156C755 842.65 763.507 851.156 774 851.156C784.493 851.156 793 842.65 793 832.156Z" fill="#FFED00"/>
<path d="M1008 243.16C1008 232.667 999.493 224.16 989 224.16C978.507 224.16 970 232.667 970 243.16C970 253.654 978.507 262.16 989 262.16C999.493 262.16 1008 253.654 1008 243.16Z" fill="#FFED00"/>
<path d="M821 57.1641C821 46.6707 812.493 38.1641 802 38.1641C791.507 38.1641 783 46.6707 783 57.1641C783 67.6575 791.507 76.1641 802 76.1641C812.493 76.1641 821 67.6575 821 57.1641Z" fill="#FFED00"/>
<path d="M378 55.1562C378 44.6628 369.493 36.1562 359 36.1562C348.507 36.1562 340 44.6628 340 55.1562C340 65.6497 348.507 74.1562 359 74.1562C369.493 74.1562 378 65.6497 378 55.1562Z" fill="#FFED00"/>
<path d="M367.5 56.6562L361.375 64.561L637.783 341.55L767.502 829.157L777.122 826.423L646.503 335.656L367.5 56.6562Z" fill="#FFED00"/>
<path d="M641.997 332.38L641.388 332.21L167.5 332.195L167.312 342.194L639.94 342.186L916.329 415.796L918.999 406.158L641.997 332.38Z" fill="#FFED00"/>
<path d="M635.439 333.702L555.5 475.661L564.839 479.239L642.926 342.112L1003.97 245.347L1001.5 235.657L635.439 333.702Z" fill="#FFED00"/>
<path d="M640.996 299.16C620.009 299.16 602.996 316.173 602.996 337.16C602.996 358.147 620.009 375.16 640.996 375.16C661.983 375.16 678.996 358.147 678.996 337.16C678.996 316.173 661.983 299.16 640.996 299.16Z" fill="#FFED00"/>
<path d="M393.866 655.16L393.866 643.606L422.225 643.606C424.186 643.606 425.166 642.556 425.166 640.455L425.166 627.325L423.276 627.325C422.715 628.516 421.84 629.706 420.65 630.897C419.459 632.087 417.849 633.067 415.818 633.838C413.787 634.608 411.197 634.993 408.045 634.993C403.984 634.993 400.413 634.083 397.332 632.262C394.321 630.371 391.975 627.78 390.294 624.489C388.614 621.198 387.773 617.417 387.773 613.145L387.773 582.055L401.008 582.055L401.008 612.095C401.008 616.016 401.953 618.957 403.844 620.918C405.805 622.879 408.571 623.859 412.142 623.859C416.203 623.859 419.354 622.529 421.595 619.868C423.836 617.137 424.956 613.355 424.956 608.524L424.956 582.055L438.191 582.055L438.191 643.396C438.191 646.967 437.141 649.803 435.04 651.904C432.939 654.075 430.138 655.16 426.637 655.16L393.866 655.16Z" fill="white"/>
<path d="M324.289 634.153L324.289 582.055L337.314 582.055L337.314 588.883L339.204 588.883C340.044 587.062 341.62 585.346 343.931 583.736C346.242 582.055 349.743 581.215 354.434 581.215C358.496 581.215 362.032 582.16 365.043 584.051C368.124 585.871 370.505 588.427 372.186 591.718C373.866 594.94 374.706 598.721 374.706 603.062L374.706 634.153L361.472 634.153L361.472 604.113C361.472 600.191 360.492 597.25 358.531 595.29C356.64 593.329 353.909 592.349 350.338 592.349C346.277 592.349 343.126 593.714 340.885 596.445C338.644 599.106 337.524 602.852 337.524 607.684L337.524 634.153L324.289 634.153Z" fill="white"/>
<path d="M279.736 635.625C276.025 635.625 272.699 634.995 269.758 633.734C266.817 632.404 264.471 630.513 262.72 628.062C261.04 625.541 260.199 622.495 260.199 618.924C260.199 615.353 261.04 612.377 262.72 609.996C264.471 607.545 266.852 605.725 269.863 604.534C272.944 603.274 276.445 602.644 280.366 602.644L294.651 602.644L294.651 599.703C294.651 597.252 293.881 595.256 292.34 593.715C290.8 592.105 288.349 591.3 284.988 591.3C281.697 591.3 279.246 592.07 277.635 593.61C276.025 595.081 274.974 597.007 274.484 599.387L262.3 595.291C263.14 592.63 264.471 590.214 266.291 588.044C268.182 585.803 270.668 584.017 273.749 582.687C276.9 581.286 280.716 580.586 285.198 580.586C292.06 580.586 297.487 582.302 301.478 585.733C305.47 589.164 307.466 594.136 307.466 600.648L307.466 620.08C307.466 622.18 308.446 623.231 310.407 623.231L314.608 623.231L314.608 634.154L305.785 634.154C303.194 634.154 301.058 633.524 299.378 632.264C297.697 631.003 296.857 629.323 296.857 627.222L296.857 627.117L294.861 627.117C294.581 627.957 293.951 629.078 292.971 630.478C291.99 631.809 290.45 632.999 288.349 634.049C286.248 635.1 283.377 635.625 279.736 635.625ZM282.047 624.911C285.758 624.911 288.769 623.896 291.08 621.865C293.461 619.764 294.651 616.999 294.651 613.567L294.651 612.517L281.312 612.517C278.861 612.517 276.935 613.042 275.535 614.093C274.134 615.143 273.434 616.613 273.434 618.504C273.434 620.395 274.169 621.935 275.64 623.126C277.11 624.316 279.246 624.911 282.047 624.911Z" fill="white"/>
<path d="M173.91 634.153L173.91 582.055L186.935 582.055L186.935 587.727L188.825 587.727C189.736 585.976 191.241 584.471 193.342 583.211C195.443 581.88 198.209 581.215 201.64 581.215C205.351 581.215 208.327 581.95 210.568 583.421C212.809 584.821 214.524 586.677 215.715 588.988L217.605 588.988C218.796 586.747 220.476 584.891 222.647 583.421C224.818 581.95 227.899 581.215 231.89 581.215C235.111 581.215 238.017 581.915 240.608 583.316C243.269 584.646 245.37 586.712 246.91 589.513C248.521 592.244 249.326 595.71 249.326 599.911L249.326 634.153L236.092 634.153L236.092 600.857C236.092 597.986 235.356 595.85 233.886 594.449C232.415 592.979 230.35 592.244 227.689 592.244C224.678 592.244 222.332 593.224 220.651 595.185C219.041 597.075 218.235 599.806 218.235 603.378L218.235 634.153L205.001 634.153L205.001 600.857C205.001 597.986 204.266 595.85 202.795 594.449C201.325 592.979 199.259 592.244 196.598 592.244C193.587 592.244 191.241 593.224 189.561 595.185C187.95 597.075 187.145 599.806 187.145 603.378L187.145 634.153L173.91 634.153Z" fill="white"/>
<path d="M132.262 634.156L132.262 582.058L145.286 582.058L145.286 587.94L147.177 587.94C147.947 585.839 149.208 584.299 150.958 583.318C152.779 582.338 154.88 581.848 157.26 581.848L163.563 581.848L163.563 593.612L157.05 593.612C153.689 593.612 150.923 594.522 148.752 596.343C146.582 598.093 145.496 600.824 145.496 604.535L145.496 634.156L132.262 634.156Z" fill="white"/>
<path d="M95.388 635.625C90.2062 635.625 85.6196 634.54 81.6282 632.369C77.7069 630.128 74.6258 627.012 72.385 623.021C70.2143 618.959 69.1289 614.198 69.1289 608.736L69.1289 607.475C69.1289 602.013 70.2143 597.287 72.385 593.295C74.5558 589.234 77.6018 586.118 81.5232 583.947C85.4445 581.706 89.9961 580.586 95.1779 580.586C100.29 580.586 104.736 581.741 108.518 584.052C112.299 586.293 115.24 589.444 117.341 593.505C119.441 597.497 120.492 602.153 120.492 607.475L120.492 611.992L82.5735 611.992C82.7136 615.563 84.0441 618.469 86.5649 620.71C89.0858 622.951 92.1669 624.071 95.8081 624.071C99.5194 624.071 102.25 623.266 104.001 621.655C105.752 620.045 107.082 618.259 107.992 616.298L118.811 621.97C117.831 623.791 116.395 625.787 114.505 627.957C112.684 630.058 110.233 631.879 107.152 633.419C104.071 634.89 100.15 635.625 95.388 635.625ZM82.6786 602.118L107.047 602.118C106.767 599.107 105.541 596.692 103.371 594.871C101.27 593.05 98.5041 592.14 95.0729 592.14C91.5016 592.14 88.6657 593.05 86.5649 594.871C84.4642 596.692 83.1688 599.107 82.6786 602.118Z" fill="white"/>
<path d="M27.0994 635.627C22.0576 635.627 17.471 634.506 13.3396 632.265C9.2782 629.955 6.02208 626.628 3.57123 622.287C1.19041 617.875 -1.23731e-07 612.519 -1.09117e-07 606.216L-6.8198e-08 588.57C-4.62772e-08 579.117 2.66092 571.87 7.98276 566.828C13.3046 561.716 20.5171 559.16 29.6202 559.16C38.6533 559.16 45.6208 561.576 50.5224 566.408C55.4942 571.169 57.98 577.647 57.98 585.839L57.98 586.26L44.3253 586.26L44.3253 585.419C44.3253 582.828 43.7651 580.483 42.6447 578.382C41.5944 576.281 39.9838 574.636 37.8131 573.445C35.6423 572.185 32.9114 571.554 29.6202 571.554C24.7185 571.554 20.8672 573.06 18.0662 576.071C15.2653 579.082 13.8648 583.178 13.8648 588.36L13.8648 606.426C13.8648 611.538 15.2653 615.67 18.0662 618.821C20.8672 621.902 24.7886 623.442 29.8303 623.442C34.872 623.442 38.5483 622.112 40.8591 619.451C43.1699 616.79 44.3253 613.429 44.3253 609.367L44.3253 608.317L26.8893 608.317L26.8893 596.553L57.98 596.553L57.98 634.156L45.1656 634.156L45.1656 627.119L43.2749 627.119C42.7848 628.309 41.9795 629.569 40.8591 630.9C39.8087 632.23 38.1982 633.351 36.0274 634.261C33.8567 635.171 30.8807 635.627 27.0994 635.627Z" fill="white"/>
<path d="M187.055 734.197L187.055 681.739L200.169 681.739L200.169 687.662L202.073 687.662C202.849 685.546 204.118 683.995 205.88 683.008C207.714 682.021 209.829 681.527 212.226 681.527L218.572 681.527L218.572 693.373L212.015 693.373C208.63 693.373 205.845 694.289 203.659 696.123C201.474 697.885 200.381 700.635 200.381 704.372L200.381 734.197L187.055 734.197Z" fill="white"/>
<path d="M141.873 735.039C137.784 735.039 134.188 734.122 131.085 732.289C128.053 730.385 125.691 727.776 123.999 724.462C122.307 721.148 121.461 717.341 121.461 713.04L121.461 681.734L134.787 681.734L134.787 711.982C134.787 715.931 135.739 718.892 137.643 720.866C139.617 722.841 142.402 723.828 145.998 723.828C150.087 723.828 153.26 722.488 155.516 719.809C157.773 717.059 158.901 713.252 158.901 708.386L158.901 681.734L172.227 681.734L172.227 734.192L159.112 734.192L159.112 727.318L157.209 727.318C156.362 729.081 154.776 730.808 152.449 732.5C150.123 734.192 146.597 735.039 141.873 735.039Z" fill="white"/>
<path d="M82.0841 735.673C76.8665 735.673 72.1777 734.616 68.0177 732.5C63.8578 730.385 60.5791 727.318 58.1819 723.299C55.7846 719.28 54.5859 714.45 54.5859 708.81L54.5859 707.118C54.5859 701.477 55.7846 696.647 58.1819 692.628C60.5791 688.609 63.8578 685.542 68.0177 683.427C72.1777 681.312 76.8665 680.254 82.0841 680.254C87.3017 680.254 91.9905 681.312 96.1505 683.427C100.31 685.542 103.589 688.609 105.986 692.628C108.384 696.647 109.582 701.477 109.582 707.118L109.582 708.81C109.582 714.45 108.384 719.28 105.986 723.299C103.589 727.318 100.31 730.385 96.1505 732.5C91.9905 734.616 87.3017 735.673 82.0841 735.673ZM82.0841 723.828C86.1736 723.828 89.558 722.524 92.2373 719.915C94.9166 717.235 96.2563 713.428 96.2563 708.492L96.2563 707.435C96.2563 702.499 94.9166 698.727 92.2373 696.118C89.6285 693.439 86.2441 692.099 82.0841 692.099C77.9947 692.099 74.6103 693.439 71.9309 696.118C69.2516 698.727 67.912 702.499 67.912 707.435L67.912 708.492C67.912 713.428 69.2516 717.235 71.9309 719.915C74.6103 722.524 77.9947 723.828 82.0841 723.828Z" fill="white"/>
<path d="M21.5755 734.194L21.5755 672.852L-2.94297e-08 672.852L0 660.16L57.1116 660.16L57.1116 672.852L35.5361 672.852L35.5361 734.194L21.5755 734.194Z" fill="white"/>
<path d="M326.676 555.16L326.676 482.455L339.543 482.455L339.543 488.722L341.411 488.722C342.587 486.703 344.42 484.927 346.911 483.395C349.401 481.793 352.964 480.992 357.599 480.992C361.75 480.992 365.589 482.037 369.118 484.126C372.646 486.146 375.482 489.14 377.627 493.11C379.771 497.079 380.843 501.885 380.843 507.526L380.843 509.197C380.843 514.838 379.771 519.643 377.627 523.613C375.482 527.582 372.646 530.612 369.118 532.701C365.589 534.721 361.75 535.73 357.599 535.73C354.486 535.73 351.857 535.347 349.713 534.581C347.637 533.885 345.942 532.98 344.628 531.865C343.383 530.681 342.38 529.497 341.619 528.314L339.751 528.314L339.751 555.16L326.676 555.16ZM353.656 524.24C357.737 524.24 361.093 522.951 363.721 520.374C366.42 517.728 367.769 513.898 367.769 508.884L367.769 507.839C367.769 502.825 366.42 499.029 363.721 496.453C361.023 493.806 357.668 492.483 353.656 492.483C349.643 492.483 346.288 493.806 343.59 496.453C340.892 499.029 339.543 502.825 339.543 507.839L339.543 508.884C339.543 513.898 340.892 517.728 343.59 520.374C346.288 522.951 349.643 524.24 353.656 524.24Z" fill="white"/>
<path d="M282.612 535.161C278.585 535.161 275.043 534.258 271.987 532.453C269.001 530.578 266.675 528.008 265.008 524.744C263.341 521.48 262.508 517.73 262.508 513.494L262.508 482.66L275.633 482.66L275.633 512.452C275.633 516.341 276.571 519.258 278.446 521.203C280.39 523.147 283.133 524.119 286.675 524.119C290.703 524.119 293.828 522.8 296.05 520.161C298.272 517.452 299.384 513.702 299.384 508.911L299.384 482.66L312.509 482.66L312.509 534.328L299.592 534.328L299.592 527.557L297.717 527.557C296.883 529.293 295.321 530.994 293.029 532.661C290.738 534.328 287.265 535.161 282.612 535.161Z" fill="white"/>
<path d="M235.089 534.329C231.704 534.329 228.94 533.291 226.799 531.214C224.726 529.068 223.69 526.229 223.69 522.698L223.69 493.621L210.84 493.621L210.84 482.821L223.69 482.821L223.69 466.828L236.747 466.828L236.747 482.821L250.841 482.821L250.841 493.621L236.747 493.621L236.747 520.414C236.747 522.491 237.714 523.529 239.649 523.529L249.597 523.529L249.597 534.329L235.089 534.329Z" fill="white"/>
<path d="M174.172 534.328L174.172 482.868L187.002 482.868L187.002 488.678L188.865 488.678C189.623 486.603 190.865 485.081 192.589 484.113C194.383 483.144 196.452 482.66 198.798 482.66L205.006 482.66L205.006 494.28L198.591 494.28C195.28 494.28 192.555 495.179 190.417 496.978C188.278 498.707 187.209 501.404 187.209 505.07L187.209 534.328L174.172 534.328Z" fill="white"/>
<path d="M130.286 535.993C126.591 535.993 123.28 535.363 120.352 534.104C117.424 532.774 115.088 530.885 113.346 528.436C111.672 525.917 110.836 522.873 110.836 519.304C110.836 515.735 111.672 512.761 113.346 510.382C115.088 507.933 117.459 506.114 120.456 504.924C123.524 503.664 127.01 503.035 130.914 503.035L145.135 503.035L145.135 500.096C145.135 497.646 144.368 495.652 142.835 494.113C141.301 492.503 138.861 491.699 135.515 491.699C132.238 491.699 129.798 492.468 128.195 494.008C126.591 495.477 125.546 497.402 125.058 499.781L112.927 495.687C113.764 493.028 115.088 490.614 116.901 488.445C118.783 486.205 121.258 484.421 124.326 483.091C127.463 481.692 131.262 480.992 135.724 480.992C142.556 480.992 147.959 482.707 151.932 486.135C155.906 489.564 157.893 494.533 157.893 501.04L157.893 520.459C157.893 522.558 158.869 523.608 160.821 523.608L165.004 523.608L165.004 534.524L156.22 534.524C153.64 534.524 151.514 533.894 149.841 532.634C148.168 531.375 147.331 529.695 147.331 527.596L147.331 527.491L145.344 527.491C145.065 528.331 144.438 529.45 143.462 530.85C142.486 532.18 140.952 533.369 138.861 534.419C136.77 535.468 133.911 535.993 130.286 535.993ZM132.587 525.287C136.282 525.287 139.279 524.272 141.58 522.243C143.95 520.144 145.135 517.38 145.135 513.951L145.135 512.901L131.855 512.901C129.415 512.901 127.498 513.426 126.103 514.476C124.709 515.525 124.012 516.995 124.012 518.884C124.012 520.773 124.744 522.313 126.208 523.503C127.672 524.692 129.798 525.287 132.587 525.287Z" fill="white"/>
<path d="M86.7531 534.329C83.3679 534.329 80.6044 533.291 78.4628 531.214C76.3902 529.068 75.3539 526.229 75.3539 522.698L75.3539 493.621L62.5039 493.621L62.5039 482.821L75.3539 482.821L75.3539 466.828L88.4111 466.828L88.4111 482.821L102.505 482.821L102.505 493.621L88.4111 493.621L88.4111 520.414C88.4111 522.491 89.3783 523.529 91.3127 523.529L101.261 523.529L101.261 534.329L86.7531 534.329Z" fill="white"/>
<path d="M28.4342 535.995C22.8508 535.995 17.9222 534.988 13.6484 532.974C9.37467 530.96 6.0315 528.078 3.6189 524.328C1.2063 520.578 -1.29633e-07 516.064 -1.17394e-07 510.786L-1.10631e-07 507.869L13.4416 507.869L13.4416 510.786C13.4416 515.161 14.7858 518.46 17.4741 520.682C20.1624 522.835 23.8158 523.911 28.4342 523.911C33.1215 523.911 36.6026 522.974 38.8773 521.099C41.221 519.224 42.3928 516.828 42.3928 513.911C42.3928 511.897 41.8069 510.265 40.6351 509.015C39.5321 507.765 37.8778 506.758 35.672 505.994C33.5351 505.161 30.9157 504.397 27.8138 503.703L25.4357 503.182C20.4726 502.071 16.1989 500.682 12.6144 499.015C9.09894 497.279 6.37615 495.022 4.44608 492.244C2.58493 489.466 1.65435 485.855 1.65435 481.411C1.65435 476.966 2.68832 473.181 4.75627 470.056C6.89314 466.862 9.85719 464.431 13.6484 462.764C17.5086 461.028 22.0236 460.16 27.1934 460.16C32.3633 460.16 36.9472 461.063 40.9452 462.869C45.0122 464.605 48.183 467.244 50.4578 470.785C52.8014 474.258 53.9733 478.633 53.9733 483.911L53.9733 487.036L40.5317 487.036L40.5317 483.911C40.5317 481.133 39.9802 478.911 38.8773 477.244C37.8433 475.508 36.3268 474.258 34.3278 473.494C32.3288 472.66 29.9507 472.244 27.1934 472.244C23.0575 472.244 19.9901 473.042 17.9911 474.64C16.061 476.167 15.096 478.286 15.096 480.994C15.096 482.799 15.544 484.327 16.4401 485.577C17.4052 486.827 18.8183 487.869 20.6794 488.702C22.5406 489.536 24.9187 490.265 27.8138 490.89L30.1919 491.411C35.3618 492.522 39.8423 493.946 43.6336 495.682C47.4937 497.418 50.4922 499.71 52.6291 502.557C54.766 505.404 55.8344 509.05 55.8344 513.495C55.8344 517.939 54.6971 521.863 52.4223 525.266C50.2165 528.599 47.0457 531.238 42.9098 533.182C38.8428 535.057 34.0176 535.995 28.4342 535.995Z" fill="white"/>
</svg>
