<svg width="394" height="185" viewBox="0 0 394 185" fill="none" xmlns="http://www.w3.org/2000/svg">
<path d="M105.727 32.7109H31.6406L38.6388 53.0131L84.8654 56.3263L101.701 106.18L95.1406 152.26H122.821L129.381 106.18L176.261 32.7405H145.541L123.461 73.7005L118.821 84.2605L116.901 73.7005L105.861 32.7405H105.727V32.7109Z" fill="white"/>
<path d="M166.878 152.26L183.998 32.7405H251.038L247.678 54.1805L208.638 53.8605L204.478 82.9805L237.918 82.5005L235.038 105.22L201.278 104.74L194.558 152.26H166.878Z" fill="white"/>
<path d="M268.373 32.7405L251.253 152.26H277.653L286.613 87.1405L286.453 65.7005L294.133 87.1405L321.333 152.26H344.533L361.653 32.7405H334.933L327.413 94.6605L326.293 114.98L320.213 94.6605L292.373 32.7405H268.373Z" fill="white"/>
<path fill-rule="evenodd" clip-rule="evenodd" d="M70.9722 173.236C64.8943 166.231 62.154 156.935 63.4611 147.753L68.9482 109.21L61.1824 86.2127L36.3879 84.4356C23.8033 83.5336 12.9711 75.2096 8.85943 63.2815L1.86012 42.509C-1.45807 32.8827 0.0825548 22.7166 5.99396 14.4262C11.9054 6.13574 21.4584 0.743625 31.6405 0.743625H71.4312C73.1959 0.73929 75.0662 0.746417 76.9017 0.743553H105.862C113.263 0.743553 120.193 3.28403 125.701 7.63608C131.257 3.24684 138.216 0.743553 145.542 0.743553H176.262C177.563 0.743553 178.852 0.822493 180.124 0.976933C181.396 0.822766 182.689 0.743553 183.999 0.743553H251.039C253.997 0.743553 256.908 1.15277 259.698 1.93715C262.465 1.15843 265.377 0.743553 268.374 0.743553H292.374C300.375 0.743553 307.903 3.72485 313.655 8.84419C319.337 3.78464 326.815 0.743553 334.934 0.743553H361.654C370.933 0.743553 379.755 4.77092 385.833 11.7816C391.911 18.7923 394.646 28.096 393.331 37.2809L376.211 156.801C373.953 172.56 360.454 184.264 344.534 184.264H321.334C313.06 184.264 305.306 181.077 299.494 175.652C293.743 181.02 286.036 184.264 277.654 184.264H251.254C241.976 184.264 233.154 180.236 227.076 173.225C225.44 171.339 224.047 169.287 222.909 167.116C217.518 177.402 206.749 184.264 194.559 184.264H166.879C158.643 184.264 150.767 181.09 144.85 175.474C139.079 180.95 131.294 184.264 122.822 184.264H95.1417C85.8679 184.264 77.0501 180.24 70.9722 173.236ZM101.701 106.183L84.8662 56.3277L38.6396 53.0145L31.6414 32.7123H105.728V32.7418H105.861L116.901 73.7018L118.821 84.2618L123.461 73.7018L145.541 32.7418H176.261L176.26 32.7436H176.262L129.382 106.184L122.822 152.264H95.1417L101.701 106.183ZM321.334 152.264H344.534L361.654 32.7436L361.654 32.7418H334.934L327.414 94.6618L326.294 114.982L320.214 94.6636L320.214 94.6618L292.374 32.7418H268.374L251.254 152.262L251.254 152.264H277.654L286.614 87.1436L286.614 87.1418L286.454 65.7036L294.134 87.1418L294.134 87.1436L321.334 152.262L321.334 152.264ZM166.879 152.262L183.999 32.7418H251.039L251.039 32.7436L247.679 54.1836L208.639 53.8636L204.479 82.9818L237.919 82.5018L237.919 82.5036L235.039 105.224L201.279 104.744L194.559 152.264H166.879L166.879 152.262Z" fill="black"/>
</svg>
